<svg xmlns="http://www.w3.org/2000/svg" viewBox="0 0 1876.8 1844.81"><title>logo1</title><g id="Calque_2" data-name="Calque 2"><g id="Groupe_1" data-name="Groupe 1"><path d="M1422.91,474h3a59,59,0,0,0,17,0h1c7.22,1,14.51,1,21.75,1.33,9.54.46,18.82,1.65,27.88,4.65,7.41,2.45,15.34,3.69,22.3,7.08,7.6,3.7,15.49,6.78,22.93,10.82a212.21,212.21,0,0,1,38.8,26.86,229.79,229.79,0,0,1,34,36.89c2,2.67,4.11,5.2,6.14,7.82,7.26,9.33,7.9,20.44,9.12,31.43v1c-1.33,2.47-1,5.17-1,7.79.35,15-6.54,26.35-17.39,35.89-7.94,7-16.94,11.48-27.61,12.27h-19c-1.69-1-3.56-.38-5.35-.53-12.58-1-21.86-7.92-30-16.83C1517,630,1509.32,618,1497.82,609.4a110.4,110.4,0,0,0-39.74-18.81c-13.89-3.5-27.47-3.1-40.94-.44-17.67,3.49-33.67,11.08-47.07,23.64a126.9,126.9,0,0,1-19.87,15c-13.91,8.66-29.46,9.9-44.28,5.49-16.22-4.82-29.73-14.94-36.88-31.35-2.34-5.36-1.6-11.41-3-17v-18c2.07-5.21,1.51-11,4.24-16.22,5.16-9.93,13.26-16.92,21.47-23.95a236.19,236.19,0,0,1,32.91-24.13c13.27-7.86,26.92-15.15,41.88-19.48a21.23,21.23,0,0,0,2.38-.75c16.5-7.21,34.07-8.15,51.68-8.88C1421.36,474.44,1422.22,474.62,1422.91,474Z" style="fill:#f1bf29"/><path d="M1439.85,200h4a2.47,2.47,0,0,0,1.86.49c17.46-.27,34.94-.05,52.35,1.17,13,.92,26.11,2.5,38.78,6.21,3.82,1.12,7.74,1.89,11.61,2.8A304.58,304.58,0,0,1,1594.79,226a408.19,408.19,0,0,1,49.86,24.92,310.23,310.23,0,0,1,40,27.9c18.2,14.93,35.81,30.71,50.58,49.33,5.46,6.89,11.18,13.62,17,20.19,7.15,8.05,10.25,17.28,11,27.65.07,1-.27,2,.49,2.86v13a28.94,28.94,0,0,0-1.18,8.29c-.54,13-8.1,21.76-17.41,29.52-.89.74-1.88,1.37-2.79,2.1-8.76,7-18.54,10.87-30,10.1-5.14-.34-10.32.14-15.48-.19-14.33-.92-24.66-9-33.72-19.12-8.65-9.65-16.11-20.38-25.23-29.59-10.53-10.63-21.45-20.89-33.86-29.42a287.36,287.36,0,0,0-39-23,266.7,266.7,0,0,0-57.19-19.9c-10.93-2.44-22.06-2.92-32.86-5-12.44-2.42-24.57-.8-36.72-.38a229.82,229.82,0,0,0-51.58,8.12,249.14,249.14,0,0,0-42.1,15.31c-18.19,8.61-35.55,18.73-51,31.9-7.31,6.23-15.13,11.93-22.63,18s-16.62,8.3-25.93,9.35c-18.52,2.09-34.73-3.82-47.73-16.74-8.28-8.23-14.57-18.21-14-30.9.08-1.76.56-3.64-.46-5.35v-13c.54-8.55,2.62-16.6,7.37-23.87,3.88-5.94,9.35-10.26,14.59-14.88a416.28,416.28,0,0,1,46-34.87,351.37,351.37,0,0,1,66.27-34.34c10.36-4,20.74-8.33,31.5-11.1,20.55-5.29,41.16-10.78,62.52-11.6C1420.73,200.85,1430.3,200.64,1439.85,200Z" style="fill:#f1bf29"/><path d="M1874.65,1805.18c-6.76-15-16.85-27.94-26.31-41.21-23.49-32.93-50.43-62.9-79.71-90.73q-20.28-19.26-42.41-36.49c-12.84-10-31.92-8.38-42.12,3.49a30.79,30.79,0,0,0,2.6,42.83c9,8.13,18.63,15.62,27.78,23.64a555.58,555.58,0,0,1,54.63,55.48c4.14,4.8,8.14,9.7,12.12,14.62,1,1.28,2.5,2.57,1.8,4.39l0,0,.46.58h-.77c-1,1.42-2.84,1.2-4.42,1.33s-3,0-4.49,0q-197.47,0-395,.13c-6.92,0-11.2-2.16-15.15-8a822.68,822.68,0,0,0-180.82-190.6c-2-1.54-5.48-2.71-4.83-5.73.69-3.24,4.45-3,7.09-3.66a626.09,626.09,0,0,1,94.63-15.17,559.53,559.53,0,0,1,67.38-1.56A582.39,582.39,0,0,1,1453,1572.43c45.21,10.26,88.75,25.23,130.21,46.08,8.25,4.15,16.8,5.37,25.66,2.61,11.6-3.61,18.7-11.65,20.35-23.57,1.87-13.49-2.34-24.81-14.82-31.76-1.87-1-3.76-2-5.65-3-2.69-15.47-5.21-31-7.74-46.45-2.14-13.09-4.15-26.19-6.3-39.28s-4.5-26.44-6.68-39.67-4.17-26.19-6.31-39.27c-2.57-15.66-5.24-31.3-7.8-47-2.11-12.92-4.07-25.87-6.19-38.79-2.21-13.4-4.58-26.76-6.78-40.16-2.14-13.09-4.09-26.2-6.22-39.29-2.51-15.5-5.15-31-7.68-46.48-2.14-13.09-4.16-26.19-6.31-39.27-2.17-13.24-4.49-26.45-6.66-39.68-2.16-13.08-4.18-26.19-6.32-39.27-2.57-15.66-5.25-31.29-7.8-47-2.12-13.08-4.1-26.2-6.2-39.29-2.07-12.93-4.22-25.84-6.34-38.76q-3.32-20.09-6.64-40.19c-2.56-15.49-5.16-31-7.69-46.48-2.13-13.08-4.16-26.19-6.31-39.27s-4.49-26.44-6.66-39.68-4.23-26.51-6.32-39.77q-2.54-16-5-32a1.78,1.78,0,0,0-1.87-1.8c-7.2-.65-14.4-1.44-21.61-2-14.46-1.11-28.94-2.09-43.4-3.16-.38,0-.71-.57-1.07-.86h-8l-18.95,56.16q-14,41.33-27.93,82.65-14,41.57-28,83.14t-28,83.15q-13.93,41.33-27.93,82.65-14,41.57-28,83.15T1206,1252q-14,41.34-27.93,82.65-14,41.57-28,83.15c-9.34,27.71-18.42,55.52-28.11,83.11-3.8,10.81-7,21.83-10.91,32.6a14.31,14.31,0,0,1-8.15-2.18c-13.05-7.73-26.24-15.2-39.86-21.9a8.62,8.62,0,0,1-4.87-6.48q-13.11-62.12-28-123.84-13.46-56.4-28.37-112.45-13.51-50.72-28.22-101.11c-3-10.24-6-20.47-9.22-30.63-4.74-15-18.7-23-35.11-20.35-13.9,2.25-23.8,14.67-24.09,29.56-.12,6.38,2,12.13,3.8,18,20.94,69.76,39.79,140.09,57.06,210.84q11.33,46.38,21.72,93c.57,2.52,2.24,5.59.13,7.63-2.45,2.36-5.34-.06-7.86-1A812.58,812.58,0,0,0,861.14,1438c-12.37-2.59-11.15-1.27-11.81-13.43-1.21-22.59-2.31-45.19-4-67.75-2.06-28.37-4.12-56.75-6.58-85.09q-4.15-48-9.47-95.91c-2.9-26.32-6.32-52.58-10-78.81-7.88-56.46-17.29-112.65-28.85-168.47-11.33-54.69-24.87-108.83-41.1-162.28-.66-2.21-2.59-5.51-.53-6.68h0l.24-.12c2.65-1.12,3.42,2.87,4.49,4.92,38.46,74.06,70.94,150.72,99.46,229.1,5.07,13.94,10,27.92,15,41.89a30.52,30.52,0,0,0,59.24-9.3,35.27,35.27,0,0,0-2.23-12.74c-19.17-54.56-39.63-108.63-62.45-161.79-14.39-33.54-29.6-66.7-46.12-99.25-15.68-30.91-32.39-61.27-50.56-90.81a41.81,41.81,0,0,1-2.27-3.88c-.71-1.45-2-3-.62-4.58s3.14-.88,4.69-.3c7.82,2.9,15.75,5.41,23.72,7.84a625.45,625.45,0,0,0,116,23.28,585.73,585.73,0,0,0,88.31,2.48c57.81-2.54,114.11-13.14,167.71-35.89a362.21,362.21,0,0,0,67.16-37.32,40.37,40.37,0,0,0,11-10.81c4-6.15,4.44-12.45,1.39-19a54.18,54.18,0,0,1-4.93-15.16c-.76-5.2-4.39-8.55-7.61-12-29.93-32.57-64.67-58.91-103.44-80.15-31.87-17.45-65.39-30.74-100-41.53-2-.62-4.74-.66-5.26-3.14a.34.34,0,0,1,0-.1l-.16-.05.13-.11c-.31-2.32,2.07-3.47,3.64-4.69a527.06,527.06,0,0,0,62.1-56.41c38.6-41.14,69.82-87,88.25-140.81,6.47-18.86-2.26-36.61-21.8-41.7a357.7,357.7,0,0,0-61.53-10.18,420.4,420.4,0,0,0-55.43-.56,488.09,488.09,0,0,0-108.64,18.47A593.78,593.78,0,0,0,817,239.51c-7.24,3.75-14.36,7.76-21.48,11.75-1.41.79-3,2-4.61.69-1.47-1.18-1.21-3-.95-4.66,4.4-28.08,5.5-56.37,4.45-84.69-1.67-45-10-88.63-29.09-129.82-2.38-5.14-4.91-10.18-7.59-15.18a29.69,29.69,0,0,0-16-14.38c-1.56-.6-3.8-.68-3.86-3.22h-15c-16.7,7.3-30.49,18.79-44.07,30.58C648.46,57,624.09,88.28,603.94,123a471.55,471.55,0,0,0-37.23,81.13,522,522,0,0,0-19.61,74.25c-2.41,12.5-3.64,25.23-5.45,38.16-11.25-12.94-22.22-25.93-34.47-37.68a519.46,519.46,0,0,0-61.46-51,463.38,463.38,0,0,0-66.45-39.06c-30.21-14.42-61.69-25.3-94.59-31.57a290.32,290.32,0,0,0-36.17-4.49c-9-.56-17.89-.31-26.82-.72-15.72-.72-31.84,12.25-33,27.74-.69,9.36,1,18.26,2.48,27.21,2.89,17.93,8.24,35.27,14.46,52.33,8.16,22.38,18.94,43.51,31.13,63.91a396.16,396.16,0,0,0,36,50.89,506.64,506.64,0,0,0,47.87,50.33,529.63,529.63,0,0,0,63.77,49.47c5.57,3.7,11.35,7.06,17.41,10.81-18.08,4.54-35.56,9.73-52.78,15.73a611,611,0,0,0-86.6,38.46,532.39,532.39,0,0,0-51.21,31q-25.12,17.29-48.65,36.73a540.83,540.83,0,0,0-47.33,44.72,422.87,422.87,0,0,0-41.06,51C63.13,718.46,53,735.11,44.7,752.79c-6.56,14-13.16,28.13-16.85,43.35-3.76,15.49,6.78,32.74,22,36.88a356,356,0,0,0,41.2,8.62c8.26,1.22,16.72,1.7,25.06,2.51,10.82,1.06,21.56.49,32.33.72,21.17.47,42.11-1.8,63.06-4.8a520,520,0,0,0,79.68-18.18,564.92,564.92,0,0,0,75-28.95c11.4-5.38,22.78-10.79,34.32-17.32-1.65,8-3.21,15.34-4.72,22.74-2.83,13.95-5.21,28-6.87,42.13-1.91,16.37-3.16,32.77-4.2,49.22a431.26,431.26,0,0,0-.53,45.32c1.45,35.28,5.78,70.28,14.89,104.49,8.75,32.89,20.94,64.5,39.11,93.38,8.08,12.85,24.26,16.43,38.18,10.73,9.48-3.89,17.2-10.78,25.2-17a342.16,342.16,0,0,0,37-33.83,426.46,426.46,0,0,0,38.37-46.35,503,503,0,0,0,47.33-80.36,562.74,562.74,0,0,0,31.94-84.25c5.62-19.64,10.54-39.43,14.39-59.46,2.28-11.88,4.17-23.86,5.47-35.93,1.2-11.24,2.73-22.43,3.65-33.88,3.67,11.26,7.58,22.45,10.94,33.8,5.46,18.46,10.79,37,15.78,55.57,9.83,36.59,18.24,73.5,25.7,110.65q7.27,36.3,13.72,72.73c3.67,20.94,6.93,42,10,63,2.34,16.06,4.06,32.21,6.13,48.32,1.93,14.95,4.12,29.88,5.9,44.85,1.28,10.77,2,21.61,3.1,32.41,1.58,15.53,3.42,31,4.9,46.56.92,9.68,1.3,19.41,2.1,29.11,1.23,14.92,2.66,29.83,3.91,44.75.44,5.26.56,10.57.79,15.82.34,7.93,1.15,15.85,1.42,23.79.47,13.83,1.87,27.63,2.79,41.44.2,3,0,5.95,0,8.77-10.36-.4-20.31-1.6-30.29-2.47a784.48,784.48,0,0,0-84.93-2.73c-18,.39-36,1.48-53.93,3-16.33,1.41-32.64,3.43-48.83,6-17.91,2.82-35.78,6.1-53.48,10a779.34,779.34,0,0,0-94.65,26.85c-22.48,8-44.63,16.86-66.38,26.75-15,6.8-29.6,14.24-44.2,21.73-18.64,9.58-36.6,20.4-54.37,31.53-20.55,12.87-40.34,26.86-59.62,41.52-12.42,9.45-24.26,19.68-36.2,29.76-20.33,17.17-39.11,35.92-57.61,54.94-16,16.43-30.7,34-45.15,51.79-18.83,23.2-35.78,47.69-52.36,72.49-2.2,3.29-2.66,7.26-4.88,10.46v15c1.25,2.75,2.44,5.54,3.79,8.25,4.2,8.47,11.87,12.55,20.2,15.75H352c8.14-2.91,15.52-6.85,20.11-14.63,6.15-10.42,6.83-21.09,1-31.79-5.7-10.48-14.58-16.51-26.65-16.52q-123.46-.15-246.94,0H92.21c60.57-80.2,133.05-145.48,218.84-196A738.55,738.55,0,0,1,585.8,1490q185-26,361.3,37.09a731.19,731.19,0,0,1,235.61,138.24,748,748,0,0,1,108.55,116.51h-6.84q-407.42,0-814.81-.15c-12.53,0-28.45,10-30.84,26.37-2.8,19.07,9.89,33.32,23.62,36,.22,0,.37.49.56.74H1852.8c4.48-2.38,9.29-3.93,13.24-7.53,5.36-4.89,8.21-11,10.76-17.47v-13C1875.5,1807,1875.05,1806.07,1874.65,1805.18ZM389.88,399.35c-11-8.72-21.45-18-31.77-27.53-28.15-26-51.52-55.73-70.95-88.57a273.56,273.56,0,0,1-28.26-65.6c134.07,18,262.92,139.41,295.79,254.22-9.86.49-19.4-1.06-28.76-3.46a342.79,342.79,0,0,1-77.82-30.87A396.42,396.42,0,0,1,389.88,399.35ZM406.6,697.7a555.51,555.51,0,0,1-88.08,46.57,510.54,510.54,0,0,1-83.78,27.14,376.2,376.2,0,0,1-45.49,7.67c-17.13,1.78-34.24,3.34-51.44,2.75-11.47-.39-23-.89-34.63-3.19A319.49,319.49,0,0,1,127,738.39a395.82,395.82,0,0,1,34-42.24c5.5-6,11-11.94,16.89-17.57a509,509,0,0,1,61.27-50.45,552,552,0,0,1,77.5-45.46A513.93,513.93,0,0,1,426,544.18a433.92,433.92,0,0,1,52.85-8.43,376.48,376.48,0,0,1,48.63-1.65c7.81.24,15.59,2,23.32,3.4,1.81.33,3.64,0,5.62.76-3.08,8.28-7.92,15.65-12.5,23.13a339,339,0,0,1-38.85,52,533,533,0,0,1-45.41,44.52A491.31,491.31,0,0,1,406.6,697.7Zm210.16,36.06c-.25,14.28-1.94,28.53-3.65,42.76A536.3,536.3,0,0,1,602.89,834a528.82,528.82,0,0,1-31,93.3A452.3,452.3,0,0,1,527.81,1006a365,365,0,0,1-26,32.79c-7.08,8-14.79,15.26-22.17,22.9-4.06,4.19-4.53,3.88-6.71-1.48a331.66,331.66,0,0,1-18.71-65.32,361.52,361.52,0,0,1-5.37-42.48c-1-15.37-2.55-30.75-1.71-46.12.9-16.26,1.63-32.53,3.62-48.76A588,588,0,0,1,465,780.91a547.42,547.42,0,0,1,19-58.69c.83-2.17,2.57-3.46,4.16-4.82,7.65-6.49,15.64-12.58,23.06-19.31,9.34-8.48,18.58-17.12,27.26-26.27,22.89-24.12,43.6-50,61.43-79.24a220.25,220.25,0,0,1,7.95,29.49c3.33,15.87,5.48,31.92,7.31,48.07C617.5,691.34,617.12,712.56,616.76,733.76ZM652,424.54c-9.45,12.24-20.17,23.23-31.14,34-.57.56-1,1.35-2.41,1.13-4-13.37-8.39-26.74-10.63-40.82-3.43-21.58-5.43-43.24-4.72-65,.47-14.46,1.86-28.86,3.65-43.26a434.91,434.91,0,0,1,17.7-78.3A419.65,419.65,0,0,1,642,187.58a359.06,359.06,0,0,1,28.89-51.88c13.23-19.81,28.33-38.13,46.86-54.54a263.31,263.31,0,0,1,8.21,29.73,371,371,0,0,1,6.22,45.79,309.21,309.21,0,0,1,.64,34.82,402.74,402.74,0,0,1-5.6,54.37,430.08,430.08,0,0,1-19.26,74.36C694.49,357.79,676.4,392.85,652,424.54Zm31.69,61.53a421.09,421.09,0,0,0,56-80.22c10.06-18.63,18.27-38,26.1-57.64,2.33-5.84,7.74-7.91,12-11a537.57,537.57,0,0,1,176-84.39,500.44,500.44,0,0,1,56.57-11.64c22.81-3.31,45.85-3.73,68.87-3.08,6.89.2,13.74,1.33,20.62,1.91,3.5.29,3.14,2.12,1.94,4.35a397.76,397.76,0,0,1-29.23,46.53c-15,20.48-32.14,39-50.56,56.41a480.78,480.78,0,0,1-52.35,42.56,563.29,563.29,0,0,1-78.12,46.24A526.69,526.69,0,0,1,779,475.7a360.25,360.25,0,0,1-46,7.48C716.89,484.78,700.83,485.82,683.64,486.07Zm14.91,63.37c12.86-.22,25.56-1.32,38.17-2.67a479,479,0,0,0,54.22-8.8A578.14,578.14,0,0,0,855,520a599.07,599.07,0,0,0,59.91-24.41c8-3.81,16.11-7.35,23.65-12,5.88-3.61,11.76-4.08,18.38-2.62,25,5.53,49.84,11.89,74,20.53,38.75,13.84,75.15,32.19,108.46,56.48a313.21,313.21,0,0,1,26.45,21.81,329.12,329.12,0,0,1-36.5,17.17,394.52,394.52,0,0,1-45.71,14.52,386.46,386.46,0,0,1-43.77,8.48c-14.85,1.94-29.74,3.2-44.7,4.24a399.46,399.46,0,0,1-47.3.52,558.5,558.5,0,0,1-99.75-13.49A517.79,517.79,0,0,1,753,579.59,370.14,370.14,0,0,1,698.55,549.44Zm697.51,950.72c-5.66-.27-10.72-3.63-16.62-3-3.62.39-7.26.14-10.84,1.37s-7.31.06-10.77-1.06c-4.3-1.39-8.45-1.67-12.69,0a10.83,10.83,0,0,1-5.41.71c-10.48-1.49-20.91-.58-31.39-.05-7.84.4-15.71.24-23.57.17,7.66-6.64,15.3-13.29,23-19.85,16.31-13.81,32.76-27.46,49.11-41.22,4-3.39,8-6.92,11.92-10.4,1.89-1.67,3.31-1.69,5.1.48,6.08,7.37,12.42,14.51,18.58,21.8,6.69,7.91,13.3,15.88,19.94,23.82q14.19,16.92,28.38,33.83a34.23,34.23,0,0,0-7.71-2C1420.74,1503.41,1408.53,1500.74,1396.06,1500.16Zm91.87-174.89a10.36,10.36,0,0,1,2.59-1.07c8.06,49.28,16,98.14,24.17,147.86-4.89-5.61-9.33-10.58-13.63-15.67-6.58-7.77-13.06-15.63-19.6-23.43-8.66-10.32-17.3-20.66-26-30.93-6.5-7.65-13-15.28-19.71-22.78-4.9-5.5-4.82-5.18.9-9.91,9.89-8.19,19.5-16.7,29.22-25.08C1473.2,1337.93,1480.54,1331.57,1487.93,1325.27Zm-186.84-110.64q18-53.91,36.29-107.75c3.93-11.6,7.95-23.17,11.84-34.78.75-2.27,1.6-3.62,4.41-3.21,11.4,1.62,22.9,2.24,34.38,3.07,13.76,1,27.47,2.84,41.24,3.72,5.76.37,11.51,1.14,17.28,1.12,2.81,0,3.86,1.26,4.24,3.64,3.36,21.17,6.62,42.36,10.08,63.51,3.14,19.2,6.55,38.35,9.75,57.54,1.69,10.15,3.2,20.34,4.79,30.51.57,1.19-.38,1.48-1.16,2.13q-23.4,19.69-46.69,39.54c-12.27,10.47-24.43,21.08-36.66,31.6-.86.74-1.9,1.28-2.83,1.94-2.74,2-4.45,6.69-7.92,5.76-2.65-.71-4.52-4.52-6.63-7-13.74-16.37-27.4-32.8-41.19-49.12-8.29-9.81-16.75-19.48-25.13-29.21a88.44,88.44,0,0,0-6.16-7.06C1298.72,1218.37,1300.51,1216.37,1301.09,1214.63Zm-30.61,91.1c5.26,6,10.26,11.69,15.14,17.44,6.7,7.89,13.26,15.89,20,23.78,4.36,5.15,8.77,10.26,13.28,15.28,2,2.2.74,3.62-.88,5-9.57,8-19.22,15.91-28.76,23.94-7.42,6.25-14.7,12.68-22.1,19-12.65,10.73-25.39,21.37-38,32.16-1.85,1.59-3.15,3.84-4.7,5.79l-1.66-1.07Z" style="fill:#f0bf29"/></g></g></svg>